frame=    0 fps=0.0 q=0.0 size=       0kB time=00:00:00.41 bitrate=   0.0kbits/s speed=0.83x    frame=    0 fps=0.0 q=0.0 size=       0kB time=00:00:00.89 bitrate=   0.0kbits/s speed=0.895x    frame=   18 fps= 12 q=12.2 size=     101kB time=00:00:01.42 bitrate= 580.5kbits/s speed=0.945x    frame=   18 fps=9.0 q=12.2 size=     101kB time=00:00:01.90 bitrate= 434.1kbits/s speed=0.947x    frame=   49 fps= 20 q=11.7 size=     164kB time=00:00:02.40 bitrate= 556.7kbits/s speed=0.959x    frame=   49 fps= 16 q=11.7 size=     164kB time=00:00:02.91 bitrate= 460.4kbits/s speed=0.967x    frame=   80 fps= 23 q=16.3 size=     206kB time=00:00:03.41 bitrate= 494.1kbits/s speed=0.972x    frame=   80 fps= 20 q=16.3 size=     206kB time=00:00:03.94 bitrate= 428.0kbits/s speed=0.981x    frame=  111 fps= 25 q=16.3 size=     259kB time=00:00:04.42 bitrate= 478.8kbits/s speed=0.977x    frame=  111 fps= 22 q=16.3 size=     259kB time=00:00:04.92 bitrate= 429.8kbits/s speed=0.979x    frame=  142 fps= 26 q=18.0 size=     297kB time=00:00:05.45 bitrate= 445.3kbits/s speed=0.985x    frame=  142 fps= 24 q=18.0 size=     297kB time=00:00:05.93 bitrate= 409.3kbits/s speed=0.983x    frame=  172 fps= 26 q=26.3 size=     343kB time=00:00:06.43 bitrate= 436.4kbits/s speed=0.984x    frame=  172 fps= 24 q=26.3 size=     343kB time=00:00:06.96 bitrate= 403.4kbits/s speed=0.989x    frame=  203 fps= 27 q=29.5 size=     378kB time=00:00:07.44 bitrate= 416.0kbits/s speed=0.985x    frame=  203 fps= 25 q=29.5 size=     378kB time=00:00:07.97 bitrate= 388.5kbits/s speed=0.989x    frame=  234 fps= 27 q=19.6 size=     420kB time=00:00:08.47 bitrate= 405.7kbits/s speed=0.99x    frame=  235 fps= 26 q=20.3 size=     420kB time=00:00:08.95 bitrate= 384.3kbits/s speed=0.988x    frame=  264 fps= 28 q=24.0 size=     452kB time=00:00:09.48 bitrate= 390.0kbits/s speed=0.99x    frame=  268 fps= 27 q=24.4 size=     463kB time=00:00:09.96 bitrate= 380.7kbits/s speed=0.988x    frame=  295 fps= 28 q=25.9 size=     493kB time=00:00:10.47 bitrate= 385.4kbits/s speed=0.989x    frame=  297 fps= 27 q=26.6 size=     493kB time=00:00:10.97 bitrate= 368.2kbits/s speed=0.989x    frame=  326 fps= 28 q=29.6 size=     533kB time=00:00:11.50 bitrate= 379.4kbits/s speed=0.992x    frame=  328 fps= 27 q=31.0 size=     533kB time=00:00:11.98 bitrate= 364.7kbits/s speed=0.99x    frame=  357 fps= 28 q=24.8 size=     562kB time=00:00:12.51 bitrate= 367.8kbits/s speed=0.992x    frame=  365 fps= 28 q=24.9 size=     574kB time=00:00:12.96 bitrate= 362.3kbits/s speed=0.989x    frame=  388 fps= 28 q=31.0 size=     600kB time=00:00:13.54 bitrate= 363.1kbits/s speed=0.994x    frame=  400 fps= 28 q=31.0 size=     614kB time=00:00:13.97 bitrate= 360.0kbits/s speed=0.99x    frame=  419 fps= 29 q=31.0 size=     631kB time=00:00:14.52 bitrate= 356.0kbits/s speed=0.993x    frame=  430 fps= 28 q=30.7 size=     643kB time=00:00:14.98 bitrate= 351.8kbits/s speed=0.991x    frame=  450 fps= 29 q=25.6 size=     669kB time=00:00:15.53 bitrate= 352.7kbits/s speed=0.994x    frame=  463 fps= 29 q=31.0 size=     682kB time=00:00:15.99 bitrate= 349.2kbits/s speed=0.991x    frame=  481 fps= 29 q=23.0 size=     705kB time=00:00:16.42 bitrate= 351.7kbits/s speed=0.988x    frame=  486 fps= 28 q=29.0 size=     706kB time=00:00:16.99 bitrate= 340.3kbits/s speed=0.992x    frame=  512 fps= 29 q=26.5 size=     732kB time=00:00:17.10 bitrate= 350.4kbits/s speed=0.97x    frame=  523 fps= 29 q=25.5 size=     744kB time=00:00:17.98 bitrate= 339.0kbits/s speed=0.992x    frame=  543 fps= 29 q=31.0 size=     768kB time=00:00:18.13 bitrate= 346.8kbits/s speed=0.973x    frame=  555 fps= 29 q=31.0 size=     780kB time=00:00:18.99 bitrate= 336.6kbits/s speed=0.992x    frame=  573 fps= 29 q=31.0 size=     794kB time=00:00:19.13 bitrate= 340.0kbits/s speed=0.974x    frame=  588 fps= 29 q=30.8 size=     807kB time=00:00:19.99 bitrate= 330.4kbits/s speed=0.992x    frame=  604 fps= 29 q=31.0 size=     828kB time=00:00:20.16 bitrate= 336.5kbits/s speed=0.976x    frame=  610 fps= 29 q=31.0 size=     831kB time=00:00:21.00 bitrate= 324.2kbits/s speed=0.993x    frame=  634 fps= 29 q=31.0 size=     856kB time=00:00:21.16 bitrate= 331.4kbits/s speed=0.977x    frame=  649 fps= 29 q=24.8 size=     878kB time=00:00:21.99 bitrate= 327.2kbits/s speed=0.992x    frame=  664 fps= 29 q=31.0 size=     892kB time=00:00:22.16 bitrate= 329.7kbits/s speed=0.977x    frame=  673 fps= 29 q=24.8 size=     905kB time=00:00:22.99 bitrate= 322.3kbits/s speed=0.992x    frame=  695 fps= 29 q=31.0 size=     919kB time=00:00:23.20 bitrate= 324.4kbits/s speed=0.979x    frame=  710 fps= 29 q=31.0 size=     940kB time=00:00:24.00 bitrate= 320.7kbits/s speed=0.992x    frame=  725 fps= 29 q=31.0 size=     952kB time=00:00:24.20 bitrate= 322.1kbits/s speed=0.98x    frame=  737 fps= 29 q=31.0 size=     963kB time=00:00:25.01 bitrate= 315.4kbits/s speed=0.992x    frame=  755 fps= 29 q=31.0 size=     979kB time=00:00:25.20 bitrate= 318.2kbits/s speed=0.98x    frame=  770 fps= 29 q=31.0 size=    1001kB time=00:00:26.02 bitrate= 315.0kbits/s speed=0.992x    frame=  786 fps= 29 q=31.0 size=    1014kB time=00:00:26.23 bitrate= 316.5kbits/s speed=0.981x    frame=  801 fps= 29 q=31.0 size=    1028kB time=00:00:27.00 bitrate= 311.8kbits/s speed=0.992x    frame=  816 fps= 29 q=31.0 size=    1041kB time=00:00:27.23 bitrate= 313.0kbits/s speed=0.982x    frame=  832 fps= 29 q=31.0 size=    1062kB time=00:00:28.01 bitrate= 310.5kbits/s speed=0.992x    frame=  847 fps= 29 q=31.0 size=    1074kB time=00:00:28.26 bitrate= 311.1kbits/s speed=0.983x    frame=  862 fps= 29 q=31.0 size=    1085kB time=00:00:29.02 bitrate= 306.3kbits/s speed=0.991x    frame=  877 fps= 29 q=24.8 size=    1106kB time=00:00:29.26 bitrate= 309.5kbits/s speed=0.983x    frame=  892 fps= 29 q=31.0 size=    1118kB time=00:00:30.03 bitrate= 304.9kbits/s speed=0.992x    frame=  908 fps= 29 q=31.0 size=    1130kB time=00:00:30.30 bitrate= 305.5kbits/s speed=0.984x    frame=  915 fps= 29 q=31.0 size=    1141kB time=00:00:31.20 bitrate= 299.4kbits/s speed=0.997x    frame=  915 fps= 29 q=31.0 size=    1141kB time=00:00:31.71 bitrate= 294.6kbits/s speed=0.997x    frame=  946 fps= 29 q=31.0 size=    1167kB time=00:00:32.21 bitrate= 296.8kbits/s speed=0.997x    frame=  946 fps= 29 q=31.0 size=    1167kB time=00:00:32.74 bitrate= 292.0kbits/s speed=0.998x    frame=  968 fps= 29 q=31.0 size=    1192kB time=00:00:33.03 bitrate= 295.6kbits/s speed=0.991x    frame=  977 fps= 29 q=31.0 size=    1204kB time=00:00:33.72 bitrate= 292.3kbits/s speed=0.997x    frame= 1008 fps= 29 q=31.0 size=    1230kB time=00:00:34.23 bitrate= 294.4kbits/s speed=0.997x    frame= 1008 fps= 29 q=31.0 size=    1230kB time=00:00:34.73 bitrate= 290.2kbits/s speed=0.997x    frame= 1035 fps= 29 q=31.0 size=    1267kB time=00:00:35.04 bitrate= 296.2kbits/s speed=0.992x    frame= 1039 fps= 29 q=31.0 size=    1269kB time=00:00:35.74 bitrate= 290.9kbits/s speed=0.997x    frame= 1070 fps= 29 q=31.0 size=    1309kB time=00:00:36.24 bitrate= 295.8kbits/s speed=0.997x    frame= 1070 fps= 29 q=31.0 size=    1309kB time=00:00:36.75 bitrate= 291.7kbits/s speed=0.997x    frame= 1101 fps= 29 q=31.0 size=    1339kB time=00:00:37.25 bitrate= 294.5kbits/s speed=0.997x    frame= 1101 fps= 29 q=31.0 size=    1339kB time=00:00:37.75 bitrate= 290.6kbits/s speed=0.997x    frame= 1132 fps= 30 q=31.0 size=    1378kB time=00:00:38.28 bitrate= 294.8kbits/s speed=0.998x    frame= 1132 fps= 29 q=31.0 size=    1378kB time=00:00:38.79 bitrate= 291.0kbits/s speed=0.998x    frame= 1163 fps= 30 q=31.0 size=    1406kB time=00:00:39.27 bitrate= 293.2kbits/s speed=0.997x    frame= 1163 fps= 29 q=31.0 size=    1406kB time=00:00:39.79 bitrate= 289.4kbits/s speed=0.998x    frame= 1194 fps= 30 q=31.0 size=    1442kB time=00:00:40.27 bitrate= 293.3kbits/s speed=0.997x    frame= 1194 fps= 29 q=31.0 size=    1442kB time=00:00:40.80 bitrate= 289.5kbits/s speed=0.998x    frame= 1225 fps= 30 q=24.8 size=    1478kB time=00:00:41.19 bitrate= 294.0kbits/s speed=0.995x    frame= 1225 fps= 29 q=24.8 size=    1478kB time=00:00:41.79 bitrate= 289.8kbits/s speed=0.998x    frame= 1256 fps= 30 q=31.0 size=    1506kB time=00:00:42.05 bitrate= 293.3kbits/s speed=0.992x    frame= 1256 fps= 29 q=31.0 size=    1506kB time=00:00:42.79 bitrate= 288.2kbits/s speed=0.998x    frame= 1286 fps= 30 q=31.0 size=    1540kB time=00:00:43.06 bitrate= 293.0kbits/s speed=0.992x    frame= 1287 fps= 29 q=31.0 size=    1540kB time=00:00:43.83 bitrate= 287.9kbits/s speed=0.998x    frame= 1317 fps= 30 q=31.0 size=    1568kB time=00:00:44.07 bitrate= 291.4kbits/s speed=0.992x    frame= 1318 fps= 29 q=31.0 size=    1568kB time=00:00:44.83 bitrate= 286.5kbits/s speed=0.998x    frame= 1347 fps= 30 q=31.0 size=    1604kB time=00:00:45.05 bitrate= 291.6kbits/s speed=0.992x    frame= 1349 fps= 29 q=31.0 size=    1605kB time=00:00:45.84 bitrate= 286.7kbits/s speed=0.998x    frame= 1377 fps= 30 q=31.0 size=    1631kB time=00:00:46.06 bitrate= 290.0kbits/s speed=0.992x    frame= 1380 fps= 29 q=31.0 size=    1632kB time=00:00:46.85 bitrate= 285.3kbits/s speed=0.998x    frame= 1408 fps= 30 q=31.0 size=    1670kB time=00:00:47.07 bitrate= 290.6kbits/s speed=0.992x    frame= 1411 fps= 29 q=31.0 size=    1671kB time=00:00:47.86 bitrate= 286.0kbits/s speed=0.998x    frame= 1438 fps= 30 q=31.0 size=    1699kB time=00:00:48.07 bitrate= 289.5kbits/s speed=0.992x    frame= 1442 fps= 29 q=31.0 size=    1709kB time=00:00:48.87 bitrate= 286.5kbits/s speed=0.998x    frame= 1468 fps= 30 q=31.0 size=    1736kB time=00:00:49.06 bitrate= 289.9kbits/s speed=0.992x    frame= 1473 fps= 29 q=31.0 size=    1738kB time=00:00:49.87 bitrate= 285.5kbits/s speed=0.998x    frame= 1499 fps= 30 q=31.0 size=    1765kB time=00:00:50.07 bitrate= 288.8kbits/s speed=0.992x    frame= 1504 fps= 29 q=31.0 size=    1776kB time=00:00:50.88 bitrate= 285.9kbits/s speed=0.998x    frame= 1529 fps= 30 q=31.0 size=    1805kB time=00:00:51.07 bitrate= 289.4kbits/s speed=0.992x    frame= 1535 fps= 30 q=31.0 size=    1807kB time=00:00:51.91 bitrate= 285.2kbits/s speed=0.998x    frame= 1559 fps= 30 q=31.0 size=    1831kB time=00:00:52.08 bitrate= 287.9kbits/s speed=0.992x    frame= 1566 fps= 30 q=31.0 size=    1841kB time=00:00:52.90 bitrate= 285.1kbits/s speed=0.998x    frame= 1590 fps= 30 q=31.0 size=    1867kB time=00:00:53.09 bitrate= 288.1kbits/s speed=0.992x    frame= 1597 fps= 30 q=24.8 size=    1878kB time=00:00:53.93 bitrate= 285.2kbits/s speed=0.998x    frame= 1620 fps= 30 q=31.0 size=    1893kB time=00:00:54.07 bitrate= 286.8kbits/s speed=0.992x    frame= 1628 fps= 30 q=31.0 size=    1904kB time=00:00:54.94 bitrate= 283.9kbits/s speed=0.998x    frame= 1650 fps= 30 q=31.0 size=    1928kB time=00:00:55.08 bitrate= 286.7kbits/s speed=0.992x    frame= 1659 fps= 30 q=31.0 size=    1940kB time=00:00:55.95 bitrate= 284.0kbits/s speed=0.998x    frame= 1681 fps= 30 q=24.8 size=    1964kB time=00:00:56.09 bitrate= 286.9kbits/s speed=0.992x    frame= 1690 fps= 30 q=31.0 size=    1967kB time=00:00:56.95 bitrate= 282.9kbits/s speed=0.998x    frame= 1711 fps= 30 q=31.0 size=    1992kB time=00:00:57.10 bitrate= 285.8kbits/s speed=0.992x    frame= 1721 fps= 30 q=31.0 size=    2004kB time=00:00:57.96 bitrate= 283.2kbits/s speed=0.998x    frame= 1741 fps= 30 q=24.8 size=    2028kB time=00:00:58.08 bitrate= 286.0kbits/s speed=0.992x    frame= 1752 fps= 30 q=31.0 size=    2033kB time=00:00:58.97 bitrate= 282.3kbits/s speed=0.998x    frame= 1771 fps= 30 q=31.0 size=    2055kB time=00:00:59.09 bitrate= 284.8kbits/s speed=0.992x    frame= 1783 fps= 30 q=31.0 size=    2067kB time=00:01:00.00 bitrate= 282.2kbits/s speed=0.999x    frame= 1802 fps= 30 q=31.0 size=    2090kB time=00:01:00.10 bitrate= 284.8kbits/s speed=0.992x    frame= 1814 fps= 30 q=31.0 size=    2101kB time=00:01:00.99 bitrate= 282.2kbits/s speed=0.998x    frame= 1832 fps= 30 q=31.0 size=    2117kB time=00:01:01.11 bitrate= 283.8kbits/s speed=0.992x    frame= 1845 fps= 30 q=31.0 size=    2130kB time=00:01:01.92 bitrate= 281.8kbits/s speed=0.997x    frame= 1862 fps= 30 q=31.0 size=    2153kB time=00:01:02.11 bitrate= 284.0kbits/s speed=0.992x    frame= 1875 fps= 30 q=31.0 size=    2167kB time=00:01:02.53 bitrate= 283.9kbits/s speed=0.991x    frame= 1891 fps= 30 q=31.0 size=    2181kB time=00:01:03.10 bitrate= 283.1kbits/s speed=0.992x    frame= 1905 fps= 30 q=31.0 size=    2195kB time=00:01:03.56 bitrate= 282.9kbits/s speed=0.991x    frame= 1905 fps= 29 q=31.0 size=    2195kB time=00:01:04.51 bitrate= 278.7kbits/s speed=0.998x    frame= 1906 fps= 29 q=31.0 size=    2195kB time=00:01:04.99 bitrate= 276.7kbits/s speed=0.998x    frame= 1936 fps= 30 q=31.0 size=    2231kB time=00:01:05.52 bitrate= 278.9kbits/s speed=0.998x    frame= 1936 fps= 29 q=31.0 size=    2231kB time=00:01:06.03 bitrate= 276.7kbits/s speed=0.999x    frame= 1966 fps= 30 q=31.0 size=    2258kB time=00:01:06.53 bitrate= 278.1kbits/s speed=0.999x    frame= 1966 fps= 29 q=31.0 size=    2258kB time=00:01:07.03 bitrate= 276.0kbits/s speed=0.999x    frame= 1997 fps= 30 q=31.0 size=    2295kB time=00:01:07.54 bitrate= 278.4kbits/s speed=0.998x    frame= 1997 fps= 29 q=31.0 size=    2295kB time=00:01:08.07 bitrate= 276.2kbits/s speed=0.999x    frame= 2028 fps= 30 q=31.0 size=    2324kB time=00:01:08.57 bitrate= 277.6kbits/s speed=0.999x    frame= 2028 fps= 29 q=31.0 size=    2324kB time=00:01:09.05 bitrate= 275.7kbits/s speed=0.998x    frame= 2059 fps= 30 q=31.0 size=    2360kB time=00:01:09.58 bitrate= 277.9kbits/s speed=0.999x    frame= 2059 fps= 29 q=31.0 size=    2360kB time=00:01:10.08 bitrate= 275.9kbits/s speed=0.999x    frame= 2090 fps= 30 q=31.0 size=    2397kB time=00:01:10.56 bitrate= 278.2kbits/s speed=0.998x    frame= 2090 fps= 29 q=31.0 size=    2397kB time=00:01:11.09 bitrate= 276.1kbits/s speed=0.999x    frame= 2121 fps= 30 q=31.0 size=    2423kB time=00:01:11.57 bitrate= 277.3kbits/s speed=0.999x    frame= 2121 fps= 29 q=31.0 size=    2423kB time=00:01:12.10 bitrate= 275.3kbits/s speed=0.999x    frame= 2152 fps= 30 q=31.0 size=    2457kB time=00:01:12.60 bitrate= 277.2kbits/s speed=0.999x    frame= 2152 fps= 29 q=31.0 size=    2457kB time=00:01:13.08 bitrate= 275.4kbits/s speed=0.999x    frame= 2183 fps= 30 q=31.0 size=    2483kB time=00:01:13.61 bitrate= 276.3kbits/s speed=0.999x    frame= 2183 fps= 29 q=31.0 size=    2483kB time=00:01:14.11 bitrate= 274.4kbits/s speed=0.999x    frame= 2214 fps= 30 q=31.0 size=    2522kB time=00:01:14.59 bitrate= 276.9kbits/s speed=0.998x    frame= 2214 fps= 29 q=31.0 size=    2522kB time=00:01:15.12 bitrate= 275.0kbits/s speed=0.999x    frame= 2245 fps= 30 q=24.8 size=    2560kB time=00:01:15.63 bitrate= 277.3kbits/s speed=0.999x    frame= 2245 fps= 29 q=24.8 size=    2560kB time=00:01:16.13 bitrate= 275.5kbits/s speed=0.999x    frame= 2274 fps= 30 q=31.0 size=    2588kB time=00:01:16.63 bitrate= 276.6kbits/s speed=0.999x    frame= 2274 fps= 29 q=31.0 size=    2588kB time=00:01:17.14 bitrate= 274.8kbits/s speed=0.999x    frame= 2305 fps= 30 q=24.8 size=    2625kB time=00:01:17.64 bitrate= 277.0kbits/s speed=0.999x    frame= 2305 fps= 29 q=24.8 size=    2625kB time=00:01:18.15 bitrate= 275.2kbits/s speed=0.999x    frame= 2336 fps= 30 q=31.0 size=    2652kB time=00:01:18.65 bitrate= 276.2kbits/s speed=0.999x    frame= 2336 fps= 29 q=31.0 size=    2652kB time=00:01:19.15 bitrate= 274.5kbits/s speed=0.999x    frame= 2367 fps= 30 q=31.0 size=    2688kB time=00:01:19.66 bitrate= 276.4kbits/s speed=0.999x    frame= 2368 fps= 30 q=31.0 size=    2688kB time=00:01:20.16 bitrate= 274.7kbits/s speed=0.999x    frame= 2398 fps= 30 q=31.0 size=    2713kB time=00:01:20.67 bitrate= 275.5kbits/s speed=0.999x    frame= 2400 fps= 30 q=31.0 size=    2714kB time=00:01:21.15 bitrate= 273.9kbits/s speed=0.998x    frame= 2429 fps= 30 q=31.0 size=    2747kB time=00:01:21.70 bitrate= 275.4kbits/s speed=0.999x    frame= 2431 fps= 30 q=31.0 size=    2747kB time=00:01:22.15 bitrate= 273.9kbits/s speed=0.998x    frame= 2460 fps= 30 q=31.0 size=    2771kB time=00:01:22.68 bitrate= 274.5kbits/s speed=0.999x    frame= 2462 fps= 30 q=31.0 size=    2780kB time=00:01:23.16 bitrate= 273.9kbits/s speed=0.998x    frame= 2491 fps= 30 q=31.0 size=    2806kB time=00:01:23.71 bitrate= 274.5kbits/s speed=0.999x    frame= 2495 fps= 30 q=31.0 size=    2807kB time=00:01:24.17 bitrate= 273.2kbits/s speed=0.998x    frame= 2522 fps= 30 q=31.0 size=    2840kB time=00:01:24.75 bitrate= 274.5kbits/s speed=0.999x    frame= 2527 fps= 30 q=31.0 size=    2841kB time=00:01:25.15 bitrate= 273.3kbits/s speed=0.998x    frame= 2553 fps= 30 q=31.0 size=    2864kB time=00:01:25.49 bitrate= 274.5kbits/s speed=0.996x    frame= 2558 fps= 30 q=31.0 size=    2875kB time=00:01:26.16 bitrate= 273.3kbits/s speed=0.998x    frame= 2584 fps= 30 q=31.0 size=    2900kB time=00:01:26.74 bitrate= 273.9kbits/s speed=0.999x    frame= 2591 fps= 30 q=31.0 size=    2903kB time=00:01:27.17 bitrate= 272.8kbits/s speed=0.998x    frame= 2615 fps= 30 q=31.0 size=    2929kB time=00:01:27.33 bitrate= 274.7kbits/s speed=0.994x    frame= 2631 fps= 30 q=31.0 size=    2952kB time=00:01:28.18 bitrate= 274.2kbits/s speed=0.998x    frame= 2646 fps= 30 q=31.0 size=    2966kB time=00:01:28.36 bitrate= 274.9kbits/s speed=0.994x    frame= 2661 fps= 30 q=31.0 size=    2979kB time=00:01:29.19 bitrate= 273.6kbits/s speed=0.998x    frame= 2676 fps= 30 q=31.0 size=    2992kB time=00:01:29.36 bitrate= 274.3kbits/s speed=0.994x    frame= 2692 fps= 30 q=31.0 size=    3014kB time=00:01:30.17 bitrate= 273.8kbits/s speed=0.998x    frame= 2707 fps= 30 q=31.0 size=    3027kB time=00:01:30.40 bitrate= 274.3kbits/s speed=0.994x    frame= 2722 fps= 30 q=31.0 size=    3040kB time=00:01:31.18 bitrate= 273.1kbits/s speed=0.998x    frame= 2737 fps= 30 q=24.8 size=    3061kB time=00:01:31.40 bitrate= 274.3kbits/s speed=0.994x    frame= 2752 fps= 30 q=31.0 size=    3073kB time=00:01:32.19 bitrate= 273.1kbits/s speed=0.998x    frame= 2767 fps= 30 q=31.0 size=    3086kB time=00:01:32.40 bitrate= 273.6kbits/s speed=0.994x    frame= 2783 fps= 30 q=31.0 size=    3099kB time=00:01:33.19 bitrate= 272.4kbits/s speed=0.998x    frame= 2798 fps= 30 q=31.0 size=    3121kB time=00:01:33.43 bitrate= 273.6kbits/s speed=0.995x    frame= 2813 fps= 30 q=31.0 size=    3133kB time=00:01:34.18 bitrate= 272.5kbits/s speed=0.997x    frame= 2828 fps= 30 q=31.0 size=    3145kB time=00:01:34.43 bitrate= 272.9kbits/s speed=0.995x    frame= 2843 fps= 30 q=31.0 size=    3158kB time=00:01:35.19 bitrate= 271.8kbits/s speed=0.997x    frame= 2858 fps= 30 q=31.0 size=    3180kB time=00:01:35.43 bitrate= 272.9kbits/s speed=0.995x    frame= 2873 fps= 30 q=31.0 size=    3192kB time=00:01:36.19 bitrate= 271.8kbits/s speed=0.997x    frame= 2888 fps= 30 q=31.0 size=    3205kB time=00:01:36.43 bitrate= 272.2kbits/s speed=0.995x    frame= 2903 fps= 30 q=31.0 size=    3218kB time=00:01:37.20 bitrate= 271.2kbits/s speed=0.997x    frame= 2919 fps= 30 q=31.0 size=    3242kB time=00:01:37.46 bitrate= 272.5kbits/s speed=0.995x    frame= 2934 fps= 30 q=31.0 size=    3257kB time=00:01:38.21 bitrate= 271.7kbits/s speed=0.997x    frame= 2947 fps= 30 q=31.0 size=    3270kB time=00:01:38.40 bitrate= 272.2kbits/s speed=0.994x    frame= 2961 fps= 30 q=31.0 size=    3285kB time=00:01:39.19 bitrate= 271.3kbits/s speed=0.997x    frame= 2976 fps= 30 q=31.0 size=    3300kB time=00:01:39.46 bitrate= 271.8kbits/s speed=0.995x    frame= 2984 fps= 30 q=31.0 size=    3312kB time=00:01:40.39 bitrate= 270.3kbits/s speed=0.999x    frame= 2984 fps= 30 q=31.0 size=    3312kB time=00:01:40.90 bitrate= 268.9kbits/s speed=0.999x    frame= 3015 fps= 30 q=31.0 size=    3352kB time=00:01:41.40 bitrate= 270.8kbits/s speed=0.999x    frame= 3015 fps= 30 q=31.0 size=    3352kB time=00:01:41.91 bitrate= 269.4kbits/s speed=0.999x    frame= 3040 fps= 30 q=31.0 size=    3385kB time=00:01:42.22 bitrate= 271.2kbits/s speed=0.997x    frame= 3046 fps= 30 q=31.0 size=    3390kB time=00:01:42.91 bitrate= 269.8kbits/s speed=0.999x    frame= 3063 fps= 30 q=31.0 size=    3415kB time=00:01:43.20 bitrate= 271.0kbits/s speed=0.997x    frame= 3077 fps= 30 q=31.0 size=    3431kB time=00:01:43.92 bitrate= 270.5kbits/s speed=0.999x    frame= 3095 fps= 30 q=31.0 size=    3452kB time=00:01:44.21 bitrate= 271.4kbits/s speed=0.997x    frame= 3108 fps= 30 q=31.0 size=    3471kB time=00:01:44.93 bitrate= 270.9kbits/s speed=0.999x    frame= 3123 fps= 30 q=31.0 size=    3498kB time=00:01:45.22 bitrate= 272.3kbits/s speed=0.997x    frame= 3139 fps= 30 q=31.0 size=    3522kB time=00:01:45.91 bitrate= 272.4kbits/s speed=0.999x    frame= 3170 fps= 30 q=31.0 size=    3563kB time=00:01:46.44 bitrate= 274.2kbits/s speed=0.999x    frame= 3170 fps= 30 q=31.0 size=    3563kB time=00:01:46.95 bitrate= 272.9kbits/s speed=0.999x    frame= 3200 fps= 30 q=31.0 size=    3589kB time=00:01:47.45 bitrate= 273.6kbits/s speed=0.999x    frame= 3200 fps= 30 q=31.0 size=    3589kB time=00:01:47.95 bitrate= 272.4kbits/s speed=0.999x    frame= 3231 fps= 30 q=31.0 size=    3631kB time=00:01:48.46 bitrate= 274.2kbits/s speed=0.999x    frame= 3231 fps= 30 q=31.0 size=    3631kB time=00:01:48.96 bitrate= 273.0kbits/s speed=0.999x    frame= 3262 fps= 30 q=31.0 size=    3665kB time=00:01:49.49 bitrate= 274.2kbits/s speed=0.999x    frame= 3262 fps= 30 q=31.0 size=    3665kB time=00:01:49.97 bitrate= 273.0kbits/s speed=0.999x    frame= 3290 fps= 30 q=31.0 size=    3707kB time=00:01:50.23 bitrate= 275.5kbits/s speed=0.997x    frame= 3290 fps= 30 q=31.0 size=    3707kB time=00:01:50.98 bitrate= 273.6kbits/s speed=0.999x    frame= 3320 fps= 30 q=31.0 size=    3732kB time=00:01:51.24 bitrate= 274.8kbits/s speed=0.997x    frame= 3321 fps= 30 q=31.0 size=    3733kB time=00:01:52.01 bitrate= 273.0kbits/s speed=0.999x    frame= 3351 fps= 30 q=31.0 size=    3775kB time=00:01:52.23 bitrate= 275.5kbits/s speed=0.997x    frame= 3352 fps= 30 q=31.0 size=    3775kB time=00:01:52.99 bitrate= 273.7kbits/s speed=0.999x    frame= 3381 fps= 30 q=31.0 size=    3814kB time=00:01:53.23 bitrate= 275.9kbits/s speed=0.997x    frame= 3383 fps= 30 q=31.0 size=    3816kB time=00:01:54.00 bitrate= 274.2kbits/s speed=0.999x    frame= 3411 fps= 30 q=31.0 size=    3857kB time=00:01:54.24 bitrate= 276.5kbits/s speed=0.997x    frame= 3414 fps= 30 q=31.0 size=    3858kB time=00:01:55.03 bitrate= 274.7kbits/s speed=0.999x    frame= 3442 fps= 30 q=31.0 size=    3886kB time=00:01:55.25 bitrate= 276.2kbits/s speed=0.997x    frame= 3445 fps= 30 q=24.8 size=    3896kB time=00:01:56.07 bitrate= 275.0kbits/s speed=0.999x    frame= 3472 fps= 30 q=31.0 size=    3924kB time=00:01:56.26 bitrate= 276.5kbits/s speed=0.997x    frame= 3476 fps= 30 q=31.0 size=    3925kB time=00:01:57.05 bitrate= 274.7kbits/s speed=0.999x    frame= 3502 fps= 30 q=31.0 size=    3952kB time=00:01:57.24 bitrate= 276.1kbits/s speed=0.997x    frame= 3506 fps= 30 q=31.0 size=    3962kB time=00:01:58.06 bitrate= 274.9kbits/s speed=0.999x    frame= 3532 fps= 30 q=31.0 size=    3987kB time=00:01:58.25 bitrate= 276.2kbits/s speed=0.997x    frame= 3537 fps= 30 q=31.0 size=    3989kB time=00:01:59.09 bitrate= 274.4kbits/s speed=0.999x    frame= 3562 fps= 30 q=31.0 size=    4018kB time=00:01:59.26 bitrate= 276.0kbits/s speed=0.996x    frame= 3568 fps= 30 q=31.0 size=    4029kB time=00:02:00.10 bitrate= 274.8kbits/s speed=0.999x    frame= 3593 fps= 30 q=31.0 size=    4053kB time=00:02:00.27 bitrate= 276.1kbits/s speed=0.997x    frame= 3599 fps= 30 q=31.0 size=    4055kB time=00:02:01.08 bitrate= 274.3kbits/s speed=0.999x    frame= 3623 fps= 30 q=31.0 size=    4078kB time=00:02:01.25 bitrate= 275.5kbits/s speed=0.996x    frame= 3629 fps= 30 q=31.0 size=    4088kB time=00:02:02.09 bitrate= 274.3kbits/s speed=0.999x    frame= 3652 fps= 30 q=31.0 size=    4111kB time=00:02:02.26 bitrate= 275.5kbits/s speed=0.996x    frame= 3660 fps= 30 q=31.0 size=    4114kB time=00:02:03.12 bitrate= 273.7kbits/s speed=0.999x    frame= 3682 fps= 30 q=31.0 size=    4137kB time=00:02:03.27 bitrate= 274.9kbits/s speed=0.996x    frame= 3691 fps= 30 q=31.0 size=    4148kB time=00:02:04.13 bitrate= 273.7kbits/s speed=0.999x    frame= 3713 fps= 30 q=31.0 size=    4177kB time=00:02:04.27 bitrate= 275.3kbits/s speed=0.996x    frame= 3722 fps= 30 q=31.0 size=    4189kB time=00:02:05.11 bitrate= 274.3kbits/s speed=0.999x    frame= 3743 fps= 30 q=31.0 size=    4206kB time=00:02:05.28 bitrate= 275.0kbits/s speed=0.996x    frame= 3753 fps= 30 q=31.0 size=    4218kB time=00:02:06.15 bitrate= 273.9kbits/s speed=0.999x    frame= 3773 fps= 30 q=31.0 size=    4242kB time=00:02:06.27 bitrate= 275.2kbits/s speed=0.996x    frame= 3784 fps= 30 q=31.0 size=    4254kB time=00:02:07.15 bitrate= 274.1kbits/s speed=0.999x    frame= 3804 fps= 30 q=31.0 size=    4269kB time=00:02:07.27 bitrate= 274.8kbits/s speed=0.996x    frame= 3815 fps= 30 q=31.0 size=    4281kB time=00:02:08.16 bitrate= 273.6kbits/s speed=0.999x    frame= 3834 fps= 30 q=31.0 size=    4305kB time=00:02:08.28 bitrate= 274.9kbits/s speed=0.996x    frame= 3846 fps= 30 q=31.0 size=    4318kB time=00:02:09.17 bitrate= 273.8kbits/s speed=0.999x    frame= 3864 fps= 30 q=31.0 size=    4335kB time=00:02:09.29 bitrate= 274.7kbits/s speed=0.996x    frame= 3877 fps= 30 q=24.8 size=    4360kB time=00:02:10.18 bitrate= 274.4kbits/s speed=0.999x    frame= 3894 fps= 30 q=31.0 size=    4385kB time=00:02:10.27 bitrate= 275.7kbits/s speed=0.996x    frame= 3908 fps= 30 q=31.0 size=    4401kB time=00:02:10.73 bitrate= 275.7kbits/s speed=0.996x    frame= 3924 fps= 30 q=31.0 size=    4418kB time=00:02:11.28 bitrate= 275.7kbits/s speed=0.996x    frame= 3939 fps= 30 q=31.0 size=    4463kB time=00:02:11.76 bitrate= 277.4kbits/s speed=0.996x    frame= 3955 fps= 30 q=31.0 size=    4479kB time=00:02:12.30 bitrate= 277.3kbits/s speed=0.996x    frame= 3970 fps= 30 q=31.0 size=    4494kB time=00:02:12.80 bitrate= 277.2kbits/s speed=0.996x    frame= 3970 fps= 30 q=31.0 size=    4494kB time=00:02:13.71 bitrate= 275.4kbits/s speed=0.999x    frame= 3970 fps= 30 q=31.0 size=    4494kB time=00:02:14.21 bitrate= 274.3kbits/s speed=0.999x    frame= 4001 fps= 30 q=31.0 size=    4530kB time=00:02:14.71 bitrate= 275.4kbits/s speed=0.999x    frame= 4001 fps= 30 q=31.0 size=    4530kB time=00:02:15.24 bitrate= 274.4kbits/s speed=0.999x    frame= 4032 fps= 30 q=31.0 size=    4564kB time=00:02:15.72 bitrate= 275.5kbits/s speed=0.999x    frame= 4032 fps= 30 q=31.0 size=    4564kB time=00:02:16.23 bitrate= 274.4kbits/s speed=0.999x    frame= 4063 fps= 30 q=31.0 size=    4604kB time=00:02:16.75 bitrate= 275.8kbits/s speed=0.999x    frame= 4063 fps= 30 q=31.0 size=    4604kB time=00:02:17.23 bitrate= 274.8kbits/s speed=0.999x    frame= 4094 fps= 30 q=31.0 size=    4648kB time=00:02:17.76 bitrate= 276.4kbits/s speed=0.999x    frame= 4094 fps= 30 q=31.0 size=    4648kB time=00:02:18.27 bitrate= 275.4kbits/s speed=0.999x    frame= 4125 fps= 30 q=31.0 size=    4678kB time=00:02:18.75 bitrate= 276.2kbits/s speed=0.999x    frame= 4125 fps= 30 q=31.0 size=    4678kB time=00:02:19.27 bitrate= 275.1kbits/s speed=0.999x    frame= 4156 fps= 30 q=31.0 size=    4717kB time=00:02:19.78 bitrate= 276.4kbits/s speed=0.999x    frame= 4156 fps= 30 q=31.0 size=    4717kB time=00:02:20.26 bitrate= 275.5kbits/s speed=0.999x    frame= 4187 fps= 30 q=31.0 size=    4749kB time=00:02:20.79 bitrate= 276.3kbits/s speed=0.999x    frame= 4187 fps= 30 q=31.0 size=    4749kB time=00:02:21.29 bitrate= 275.3kbits/s speed=0.999x    frame= 4218 fps= 30 q=31.0 size=    4787kB time=00:02:21.79 bitrate= 276.5kbits/s speed=0.999x    frame= 4218 fps= 30 q=31.0 size=    4787kB time=00:02:22.30 bitrate= 275.6kbits/s speed=0.999x    frame= 4249 fps= 30 q=24.8 size=    4825kB time=00:02:22.80 bitrate= 276.8kbits/s speed=0.999x    frame= 4249 fps= 30 q=24.8 size=    4825kB time=00:02:23.33 bitrate= 275.8kbits/s speed=0.999x    frame= 4280 fps= 30 q=31.0 size=    4852kB time=00:02:23.81 bitrate= 276.4kbits/s speed=0.999x    frame= 4280 fps= 30 q=31.0 size=    4852kB time=00:02:24.31 bitrate= 275.4kbits/s speed=0.999x    frame= 4311 fps= 30 q=31.0 size=    4890kB time=00:02:24.84 bitrate= 276.6kbits/s speed=0.999x    frame= 4311 fps= 30 q=31.0 size=    4890kB time=00:02:25.32 bitrate= 275.6kbits/s speed=0.999x    frame= 4342 fps= 30 q=31.0 size=    4920kB time=00:02:25.83 bitrate= 276.4kbits/s speed=0.999x    frame= 4342 fps= 30 q=31.0 size=    4920kB time=00:02:26.33 bitrate= 275.5kbits/s speed=0.999x    frame= 4373 fps= 30 q=31.0 size=    4957kB time=00:02:26.83 bitrate= 276.6kbits/s speed=0.999x    frame= 4374 fps= 30 q=31.0 size=    4958kB time=00:02:27.34 bitrate= 275.6kbits/s speed=0.999x    frame= 4404 fps= 30 q=31.0 size=    4985kB time=00:02:27.84 bitrate= 276.2kbits/s speed=0.999x    frame= 4406 fps= 30 q=31.0 size=    4995kB time=00:02:28.32 bitrate= 275.9kbits/s speed=0.999x    frame= 4435 fps= 30 q=31.0 size=    5021kB time=00:02:28.87 bitrate= 276.3kbits/s speed=0.999x    frame= 4437 fps= 30 q=31.0 size=    5021kB time=00:02:29.33 bitrate= 275.4kbits/s speed=0.999x    frame= 4466 fps= 30 q=31.0 size=    5056kB time=00:02:29.86 bitrate= 276.4kbits/s speed=0.999x    frame= 4468 fps= 30 q=31.0 size=    5057kB time=00:02:30.34 bitrate= 275.5kbits/s speed=0.999x    frame= 4497 fps= 30 q=31.0 size=    5083kB time=00:02:30.87 bitrate= 276.0kbits/s speed=0.999x    frame= 4504 fps= 30 q=31.0 size=    5094kB time=00:02:31.35 bitrate= 275.7kbits/s speed=0.999x    frame= 4524 fps= 30 q=31.0 size=    5108kB time=00:02:31.87 bitrate= 275.5kbits/s speed=0.999x    frame= 4528 fps= 30 q=31.0 size=    5118kB time=00:02:32.35 bitrate= 275.2kbits/s speed=0.999x    frame= 4554 fps= 30 q=31.0 size=    5142kB time=00:02:32.74 bitrate= 275.8kbits/s speed=0.998x    frame= 4556 fps= 30 q=31.0 size=    5142kB time=00:02:33.34 bitrate= 274.7kbits/s speed=0.999x    frame= 4585 fps= 30 q=24.8 size=    5175kB time=00:02:33.84 bitrate= 275.6kbits/s speed=0.999x    frame= 4593 fps= 30 q=31.0 size=    5177kB time=00:02:34.35 bitrate= 274.8kbits/s speed=0.999x    frame= 4616 fps= 30 q=31.0 size=    5200kB time=00:02:34.46 bitrate= 275.8kbits/s speed=0.997x    frame= 4618 fps= 30 q=31.0 size=    5200kB time=00:02:35.35 bitrate= 274.2kbits/s speed=0.999x    frame= 4646 fps= 30 q=31.0 size=    5233kB time=00:02:35.46 bitrate= 275.8kbits/s speed=0.997x    frame= 4650 fps= 30 q=31.0 size=    5234kB time=00:02:36.36 bitrate= 274.2kbits/s speed=0.999x    frame= 4676 fps= 30 q=31.0 size=    5259kB time=00:02:36.46 bitrate= 275.3kbits/s speed=0.997x    frame= 4681 fps= 30 q=24.8 size=    5269kB time=00:02:37.35 bitrate= 274.3kbits/s speed=0.999x    frame= 4706 fps= 30 q=31.0 size=    5294kB time=00:02:37.46 bitrate= 275.4kbits/s speed=0.997x    frame= 4713 fps= 30 q=31.0 size=    5296kB time=00:02:38.35 bitrate= 274.0kbits/s speed=0.999x    frame= 4737 fps= 30 q=31.0 size=    5320kB time=00:02:38.50 bitrate= 275.0kbits/s speed=0.997x    frame= 4744 fps= 30 q=31.0 size=    5331kB time=00:02:39.36 bitrate= 274.0kbits/s speed=0.999x    frame= 4767 fps= 30 q=31.0 size=    5356kB time=00:02:39.50 bitrate= 275.1kbits/s speed=0.997x    frame= 4776 fps= 30 q=31.0 size=    5361kB time=00:02:40.37 bitrate= 273.8kbits/s speed=0.999x    frame= 4797 fps= 30 q=31.0 size=    5389kB time=00:02:40.50 bitrate= 275.1kbits/s speed=0.997x    frame= 4813 fps= 30 q=24.8 size=    5413kB time=00:02:41.38 bitrate= 274.7kbits/s speed=0.999x    frame= 4828 fps= 30 q=31.0 size=    5428kB time=00:02:41.53 bitrate= 275.3kbits/s speed=0.997x    frame= 4840 fps= 30 q=31.0 size=    5442kB time=00:02:42.36 bitrate= 274.6kbits/s speed=0.999x    frame= 4857 fps= 30 q=31.0 size=    5458kB time=00:02:42.50 bitrate= 275.1kbits/s speed=0.997x    frame= 4873 fps= 30 q=24.8 size=    5481kB time=00:02:43.37 bitrate= 274.9kbits/s speed=0.999x    frame= 4888 fps= 30 q=31.0 size=    5496kB time=00:02:43.56 bitrate= 275.3kbits/s speed=0.997x    frame= 4902 fps= 30 q=31.0 size=    5510kB time=00:02:44.38 bitrate= 274.6kbits/s speed=0.999x    frame= 4917 fps= 30 q=31.0 size=    5522kB time=00:02:44.56 bitrate= 274.9kbits/s speed=0.997x    frame= 4932 fps= 30 q=31.0 size=    5535kB time=00:02:45.39 bitrate= 274.2kbits/s speed=0.999x    frame= 4947 fps= 30 q=31.0 size=    5558kB time=00:02:45.60 bitrate= 274.9kbits/s speed=0.997x    frame= 4962 fps= 30 q=31.0 size=    5570kB time=00:02:46.37 bitrate= 274.3kbits/s speed=0.999x    frame= 4977 fps= 30 q=31.0 size=    5586kB time=00:02:46.60 bitrate= 274.7kbits/s speed=0.997x    frame= 4992 fps= 30 q=31.0 size=    5601kB time=00:02:47.38 bitrate= 274.1kbits/s speed=0.999x    frame= 5007 fps= 30 q=31.0 size=    5624kB time=00:02:47.60 bitrate= 274.9kbits/s speed=0.997x    frame= 5015 fps= 30 q=31.0 size=    5626kB time=00:02:48.53 bitrate= 273.5kbits/s speed=0.999x    frame= 5015 fps= 30 q=31.0 size=    5626kB time=00:02:49.06 bitrate= 272.6kbits/s speed=   1x    frame= 5046 fps= 30 q=31.0 size=    5662kB time=00:02:49.56 bitrate= 273.5kbits/s speed=   1x    frame= 5046 fps= 30 q=31.0 size=    5662kB time=00:02:50.07 bitrate= 272.7kbits/s speed=0.999x    frame= 5061 fps= 30 q=31.0 size=    5675kB time=00:02:50.40 bitrate= 272.8kbits/s speed=0.998x    frame= 5077 fps= 30 q=24.8 size=    5696kB time=00:02:51.07 bitrate= 272.8kbits/s speed=0.999x    frame= 5108 fps= 30 q=31.0 size=    5723kB time=00:02:51.55 bitrate= 273.3kbits/s speed=0.999x    frame= 5108 fps= 30 q=31.0 size=    5723kB time=00:02:52.08 bitrate= 272.4kbits/s speed=0.999x    frame= 5121 fps= 30 q=31.0 size=    5738kB time=00:02:52.39 bitrate= 272.7kbits/s speed=0.998x    frame= 5139 fps= 30 q=31.0 size=    5761kB time=00:02:53.09 bitrate= 272.6kbits/s speed=0.999x    frame= 5170 fps= 30 q=31.0 size=    5786kB time=00:02:53.59 bitrate= 273.0kbits/s speed=0.999x    frame= 5170 fps= 30 q=31.0 size=    5786kB time=00:02:54.10 bitrate= 272.2kbits/s speed=0.999x    frame= 5201 fps= 30 q=31.0 size=    5820kB time=00:02:54.63 bitrate= 273.0kbits/s speed=   1x    frame= 5201 fps= 30 q=31.0 size=    5820kB time=00:02:55.11 bitrate= 272.3kbits/s speed=0.999x    frame= 5232 fps= 30 q=31.0 size=    5845kB time=00:02:55.61 bitrate= 272.7kbits/s speed=0.999x    frame= 5232 fps= 30 q=31.0 size=    5845kB time=00:02:56.11 bitrate= 271.9kbits/s speed=0.999x    frame= 5263 fps= 30 q=31.0 size=    5880kB time=00:02:56.62 bitrate= 272.7kbits/s speed=0.999x    frame= 5263 fps= 30 q=31.0 size=    5880kB time=00:02:57.12 bitrate= 271.9kbits/s speed=0.999x    frame= 5294 fps= 30 q=31.0 size=    5915kB time=00:02:57.43 bitrate= 273.1kbits/s speed=0.998x    frame= 5294 fps= 30 q=31.0 size=    5915kB time=00:02:58.13 bitrate= 272.0kbits/s speed=0.999x    frame= 5325 fps= 30 q=31.0 size=    5944kB time=00:02:58.42 bitrate= 272.9kbits/s speed=0.998x    frame= 5325 fps= 30 q=31.0 size=    5944kB time=00:02:59.16 bitrate= 271.8kbits/s speed=   1x    frame= 5354 fps= 30 q=31.0 size=    5978kB time=00:02:59.43 bitrate= 272.9kbits/s speed=0.998x    frame= 5355 fps= 30 q=31.0 size=    5979kB time=00:03:00.17 bitrate= 271.8kbits/s speed=   1x    frame= 5384 fps= 30 q=31.0 size=    6003kB time=00:03:00.41 bitrate= 272.6kbits/s speed=0.998x    frame= 5385 fps= 30 q=31.0 size=    6003kB time=00:03:01.18 bitrate= 271.4kbits/s speed=0.999x    frame= 5414 fps= 30 q=31.0 size=    6041kB time=00:03:01.42 bitrate= 272.8kbits/s speed=0.998x    frame= 5416 fps= 30 q=31.0 size=    6041kB time=00:03:02.19 bitrate= 271.6kbits/s speed=0.999x    frame= 5443 fps= 30 q=31.0 size=    6066kB time=00:03:02.43 bitrate= 272.4kbits/s speed=0.998x    frame= 5445 fps= 30 q=31.0 size=    6066kB time=00:03:03.22 bitrate= 271.2kbits/s speed=   1x    frame= 5471 fps= 30 q=31.0 size=    6092kB time=00:03:03.43 bitrate= 272.0kbits/s speed=0.998x    frame= 5474 fps= 30 q=31.0 size=    6102kB time=00:03:04.23 bitrate= 271.3kbits/s speed=   1x    frame= 5501 fps= 30 q=31.0 size=    6129kB time=00:03:04.42 bitrate= 272.2kbits/s speed=0.998x    frame= 5505 fps= 30 q=31.0 size=    6131kB time=00:03:05.23 bitrate= 271.1kbits/s speed=   1x    frame= 5530 fps= 30 q=31.0 size=    6162kB time=00:03:05.43 bitrate= 272.2kbits/s speed=0.998x    frame= 5533 fps= 30 q=24.8 size=    6172kB time=00:03:06.24 bitrate= 271.5kbits/s speed=   1x    frame= 5559 fps= 30 q=31.0 size=    6201kB time=00:03:06.43 bitrate= 272.4kbits/s speed=0.998x    frame= 5564 fps= 30 q=31.0 size=    6202kB time=00:03:07.25 bitrate= 271.3kbits/s speed=   1x    frame= 5589 fps= 30 q=31.0 size=    6228kB time=00:03:07.44 bitrate= 272.2kbits/s speed=0.998x    frame= 5595 fps= 30 q=31.0 size=    6240kB time=00:03:08.26 bitrate= 271.5kbits/s speed=   1x    frame= 5620 fps= 30 q=31.0 size=    6271kB time=00:03:08.45 bitrate= 272.6kbits/s speed=0.998x    frame= 5626 fps= 30 q=31.0 size=    6274kB time=00:03:09.27 bitrate= 271.5kbits/s speed=   1x    frame= 5650 fps= 30 q=31.0 size=    6300kB time=00:03:09.43 bitrate= 272.4kbits/s speed=0.998x    frame= 5657 fps= 30 q=31.0 size=    6310kB time=00:03:10.27 bitrate= 271.7kbits/s speed=   1x    frame= 5680 fps= 30 q=31.0 size=    6336kB time=00:03:10.44 bitrate= 272.5kbits/s speed=0.998x    frame= 5688 fps= 30 q=31.0 size=    6338kB time=00:03:11.28 bitrate= 271.4kbits/s speed=   1x    frame= 5710 fps= 30 q=31.0 size=    6364kB time=00:03:11.45 bitrate= 272.3kbits/s speed=0.998x    frame= 5719 fps= 30 q=31.0 size=    6377kB time=00:03:12.29 bitrate= 271.7kbits/s speed=   1x    frame= 5740 fps= 30 q=31.0 size=    6406kB time=00:03:12.46 bitrate= 272.7kbits/s speed=0.998x    frame= 5750 fps= 30 q=31.0 size=    6419kB time=00:03:13.27 bitrate= 272.1kbits/s speed=0.999x    frame= 5770 fps= 30 q=31.0 size=    6436kB time=00:03:13.44 bitrate= 272.5kbits/s speed=0.998x    frame= 5781 fps= 30 q=31.0 size=    6448kB time=00:03:14.31 bitrate= 271.8kbits/s speed=   1x    frame= 5800 fps= 30 q=31.0 size=    6472kB time=00:03:14.45 bitrate= 272.6kbits/s speed=0.998x    frame= 5812 fps= 30 q=31.0 size=    6486kB time=00:03:15.31 bitrate= 272.0kbits/s speed=   1x    frame= 5830 fps= 30 q=31.0 size=    6503kB time=00:03:15.46 bitrate= 272.5kbits/s speed=0.998x    frame= 5843 fps= 30 q=31.0 size=    6517kB time=00:03:16.13 bitrate= 272.2kbits/s speed=0.999x    frame= 5859 fps= 30 q=31.0 size=    6541kB time=00:03:16.47 bitrate= 272.8kbits/s speed=0.998x    frame= 5873 fps= 30 q=31.0 size=    6556kB time=00:03:16.86 bitrate= 272.8kbits/s speed=0.997x    frame= 5890 fps= 30 q=31.0 size=    6571kB time=00:03:17.47 bitrate= 272.6kbits/s speed=0.998x    frame= 5904 fps= 30 q=31.0 size=    6588kB time=00:03:17.90 bitrate= 272.7kbits/s speed=0.997x    frame= 5920 fps= 30 q=31.0 size=    6615kB time=00:03:18.46 bitrate= 273.0kbits/s speed=0.998x    frame= 5934 fps= 30 q=31.0 size=    6628kB time=00:03:18.90 bitrate= 273.0kbits/s speed=0.997x    frame= 5949 fps= 30 q=31.0 size=    6642kB time=00:03:19.47 bitrate= 272.8kbits/s speed=0.998x    frame= 5964 fps= 30 q=31.0 size=    6655kB time=00:03:19.93 bitrate= 272.7kbits/s speed=0.997x    frame= 5979 fps= 30 q=31.0 size=    6677kB time=00:03:20.47 bitrate= 272.8kbits/s speed=0.998x    frame= 5995 fps= 30 q=31.0 size=    6693kB time=00:03:20.96 bitrate= 272.8kbits/s speed=0.998x    frame= 5996 fps= 30 q=31.0 size=    6694kB time=00:03:21.87 bitrate= 271.6kbits/s speed=   1x    frame= 5996 fps= 30 q=31.0 size=    6694kB time=00:03:22.37 bitrate= 270.9kbits/s speed=   1x    frame= 6026 fps= 30 q=31.0 size=    6736kB time=00:03:22.85 bitrate= 272.0kbits/s speed=0.999x    frame= 6026 fps= 30 q=31.0 size=    6736kB time=00:03:23.38 bitrate= 271.3kbits/s speed=   1x    frame= 6056 fps= 30 q=31.0 size=    6766kB time=00:03:23.88 bitrate= 271.9kbits/s speed=   1x    frame= 6056 fps= 30 q=31.0 size=    6766kB time=00:03:24.39 bitrate= 271.2kbits/s speed=   1x    frame= 6087 fps= 30 q=31.0 size=    6806kB time=00:03:24.89 bitrate= 272.1kbits/s speed=   1x    frame= 6087 fps= 30 q=31.0 size=    6806kB time=00:03:25.39 bitrate= 271.4kbits/s speed=   1x    frame= 6118 fps= 30 q=31.0 size=    6837kB time=00:03:25.92 bitrate= 272.0kbits/s speed=   1x    frame= 6118 fps= 30 q=31.0 size=    6837kB time=00:03:26.40 bitrate= 271.4kbits/s speed=   1x    frame= 6148 fps= 30 q=31.0 size=    6877kB time=00:03:26.91 bitrate= 272.3kbits/s speed=   1x    frame= 6148 fps= 30 q=31.0 size=    6877kB time=00:03:27.41 bitrate= 271.6kbits/s speed=   1x    frame= 6178 fps= 30 q=31.0 size=    6909kB time=00:03:27.91 bitrate= 272.2kbits/s speed=   1x    frame= 6178 fps= 30 q=31.0 size=    6909kB time=00:03:28.42 bitrate= 271.6kbits/s speed=   1x    frame= 6205 fps= 30 q=24.8 size=    6945kB time=00:03:28.92 bitrate= 272.3kbits/s speed=   1x    frame= 6205 fps= 30 q=24.8 size=    6945kB time=00:03:29.43 bitrate= 271.7kbits/s speed=   1x    frame= 6234 fps= 30 q=31.0 size=    6976kB time=00:03:29.93 bitrate= 272.2kbits/s speed=   1x    frame= 6234 fps= 30 q=31.0 size=    6976kB time=00:03:30.43 bitrate= 271.6kbits/s speed=   1x    frame= 6264 fps= 30 q=31.0 size=    7009kB time=00:03:30.94 bitrate= 272.2kbits/s speed=   1x    frame= 6264 fps= 30 q=31.0 size=    7009kB time=00:03:31.44 bitrate= 271.5kbits/s speed=   1x    frame= 6292 fps= 30 q=31.0 size=    7045kB time=00:03:31.95 bitrate= 272.3kbits/s speed=   1x    frame= 6292 fps= 30 q=31.0 size=    7045kB time=00:03:32.45 bitrate= 271.7kbits/s speed=0.999x    frame= 6319 fps= 30 q=31.0 size=    7074kB time=00:03:32.98 bitrate= 272.1kbits/s speed=   1x    frame= 6319 fps= 30 q=31.0 size=    7074kB time=00:03:33.48 bitrate= 271.4kbits/s speed=   1x    frame= 6348 fps= 30 q=31.0 size=    7107kB time=00:03:33.99 bitrate= 272.1kbits/s speed=   1x    frame= 6348 fps= 30 q=31.0 size=    7107kB time=00:03:34.49 bitrate= 271.4kbits/s speed=   1x    frame= 6379 fps= 30 q=31.0 size=    7146kB time=00:03:34.99 bitrate= 272.3kbits/s speed=   1x    frame= 6379 fps= 30 q=31.0 size=    7146kB time=00:03:35.52 bitrate= 271.6kbits/s speed=   1x    frame= 6410 fps= 30 q=31.0 size=    7185kB time=00:03:36.00 bitrate= 272.5kbits/s speed=   1x    frame= 6410 fps= 30 q=31.0 size=    7185kB time=00:03:36.51 bitrate= 271.8kbits/s speed=   1x    frame= 6439 fps= 30 q=31.0 size=    7216kB time=00:03:37.03 bitrate= 272.4kbits/s speed=   1x    frame= 6439 fps= 30 q=31.0 size=    7216kB time=00:03:37.51 bitrate= 271.8kbits/s speed=   1x    frame= 6469 fps= 30 q=24.8 size=    7261kB time=00:03:38.02 bitrate= 272.8kbits/s speed=   1x    frame= 6469 fps= 30 q=24.8 size=    7261kB time=00:03:38.52 bitrate= 272.2kbits/s speed=   1x    frame= 6499 fps= 30 q=31.0 size=    7298kB time=00:03:38.86 bitrate= 273.2kbits/s speed=0.999x    frame= 6499 fps= 30 q=31.0 size=    7298kB time=00:03:39.53 bitrate= 272.3kbits/s speed=   1x    frame= 6528 fps= 30 q=31.0 size=    7330kB time=00:03:39.56 bitrate= 273.5kbits/s speed=0.997x    frame= 6529 fps= 30 q=24.8 size=    7339kB time=00:03:40.51 bitrate= 272.6kbits/s speed=0.999x    frame= 6559 fps= 30 q=31.0 size=    7371kB time=00:03:40.63 bitrate= 273.7kbits/s speed=0.998x    frame= 6561 fps= 30 q=31.0 size=    7373kB time=00:03:41.52 bitrate= 272.6kbits/s speed=0.999x    frame= 6587 fps= 30 q=31.0 size=    7398kB time=00:03:41.56 bitrate= 273.5kbits/s speed=0.997x    frame= 6590 fps= 30 q=31.0 size=    7408kB time=00:03:42.53 bitrate= 272.7kbits/s speed=0.999x    frame= 6617 fps= 30 q=31.0 size=    7438kB time=00:03:42.63 bitrate= 273.7kbits/s speed=0.998x    frame= 6631 fps= 30 q=31.0 size=    7452kB time=00:03:43.54 bitrate= 273.1kbits/s speed=0.999x    frame= 6646 fps= 30 q=31.0 size=    7466kB time=00:03:43.60 bitrate= 273.5kbits/s speed=0.997x    frame= 6655 fps= 30 q=31.0 size=    7481kB time=00:03:44.55 bitrate= 272.9kbits/s speed=0.999x    frame= 6675 fps= 30 q=31.0 size=    7509kB time=00:03:44.63 bitrate= 273.8kbits/s speed=0.998x    frame= 6681 fps= 30 q=31.0 size=    7514kB time=00:03:45.53 bitrate= 272.9kbits/s speed=0.999x    frame= 6704 fps= 30 q=31.0 size=    7547kB time=00:03:45.66 bitrate= 273.9kbits/s speed=0.998x    frame= 6717 fps= 30 q=31.0 size=    7561kB time=00:03:46.54 bitrate= 273.4kbits/s speed=0.999x    frame= 6731 fps= 30 q=31.0 size=    7574kB time=00:03:46.56 bitrate= 273.9kbits/s speed=0.997x    frame= 6747 fps= 30 q=31.0 size=    7598kB time=00:03:47.55 bitrate= 273.5kbits/s speed=0.999x    frame= 6761 fps= 30 q=31.0 size=    7612kB time=00:03:47.66 bitrate= 273.9kbits/s speed=0.998x    frame= 6775 fps= 30 q=31.0 size=    7627kB time=00:03:48.55 bitrate= 273.4kbits/s speed=0.999x    frame= 6790 fps= 30 q=31.0 size=    7643kB time=00:03:48.66 bitrate= 273.8kbits/s speed=0.998x    frame= 6805 fps= 30 q=24.8 size=    7664kB time=00:03:49.54 bitrate= 273.5kbits/s speed=0.999x    frame= 6819 fps= 30 q=31.0 size=    7676kB time=00:03:49.66 bitrate= 273.8kbits/s speed=0.998x    frame= 6833 fps= 30 q=31.0 size=    7690kB time=00:03:50.55 bitrate= 273.2kbits/s speed=0.999x    frame= 6848 fps= 30 q=31.0 size=    7703kB time=00:03:50.70 bitrate= 273.5kbits/s speed=0.998x    frame= 6858 fps= 30 q=31.0 size=    7714kB time=00:03:51.65 bitrate= 272.8kbits/s speed=   1x    frame= 6858 fps= 30 q=31.0 size=    7714kB time=00:03:52.15 bitrate= 272.2kbits/s speed=   1x    frame= 6888 fps= 30 q=31.0 size=    7742kB time=00:03:52.56 bitrate= 272.7kbits/s speed=0.999x    frame= 6889 fps= 30 q=24.8 size=    7751kB time=00:03:53.16 bitrate= 272.3kbits/s speed=   1x    frame= 6919 fps= 30 q=31.0 size=    7780kB time=00:03:53.67 bitrate= 272.7kbits/s speed=   1x    frame= 6919 fps= 30 q=31.0 size=    7780kB time=00:03:54.17 bitrate= 272.2kbits/s speed=   1x    frame= 6946 fps= 30 q=31.0 size=    7805kB time=00:03:54.70 bitrate= 272.4kbits/s speed=   1x    frame= 6946 fps= 30 q=31.0 size=    7805kB time=00:03:55.18 bitrate= 271.9kbits/s speed=   1x    frame= 6975 fps= 30 q=31.0 size=    7843kB time=00:03:55.68 bitrate= 272.6kbits/s speed=   1x    frame= 6975 fps= 30 q=31.0 size=    7843kB time=00:03:56.21 bitrate= 272.0kbits/s speed=   1x    frame= 7003 fps= 30 q=31.0 size=    7870kB time=00:03:56.69 bitrate= 272.4kbits/s speed=   1x    frame= 7003 fps= 30 q=31.0 size=    7870kB time=00:03:57.22 bitrate= 271.8kbits/s speed=   1x    frame= 7033 fps= 30 q=24.8 size=    7912kB time=00:03:57.72 bitrate= 272.6kbits/s speed=   1x    frame= 7033 fps= 30 q=24.8 size=    7912kB time=00:03:58.20 bitrate= 272.1kbits/s speed=   1x    frame= 7064 fps= 30 q=31.0 size=    7941kB time=00:03:58.59 bitrate= 272.6kbits/s speed=0.999x    frame= 7064 fps= 30 q=31.0 size=    7941kB time=00:03:59.21 bitrate= 271.9kbits/s speed=   1x    frame= 7095 fps= 30 q=31.0 size=    7981kB time=00:03:59.57 bitrate= 272.9kbits/s speed=0.999x    frame= 7095 fps= 30 q=31.0 size=    7981kB time=00:04:00.24 bitrate= 272.1kbits/s speed=   1x    frame= 7125 fps= 30 q=31.0 size=    8008kB time=00:04:00.58 bitrate= 272.7kbits/s speed=0.999x    frame= 7126 fps= 30 q=31.0 size=    8009kB time=00:04:01.25 bitrate= 271.9kbits/s speed=   1x    frame= 7156 fps= 30 q=31.0 size=    8047kB time=00:04:01.59 bitrate= 272.9kbits/s speed=0.999x    frame= 7157 fps= 30 q=31.0 size=    8047kB time=00:04:02.23 bitrate= 272.1kbits/s speed=   1x    frame= 7186 fps= 30 q=31.0 size=    8079kB time=00:04:02.59 bitrate= 272.8kbits/s speed=0.999x    frame= 7187 fps= 30 q=31.0 size=    8079kB time=00:04:03.24 bitrate= 272.1kbits/s speed=   1x    frame= 7215 fps= 30 q=31.0 size=    8121kB time=00:04:03.58 bitrate= 273.1kbits/s speed=0.999x    frame= 7218 fps= 30 q=31.0 size=    8122kB time=00:04:04.27 bitrate= 272.4kbits/s speed=   1x    frame= 7245 fps= 30 q=31.0 size=    8147kB time=00:04:04.59 bitrate= 272.9kbits/s speed=0.999x    frame= 7249 fps= 30 q=24.8 size=    8156kB time=00:04:05.28 bitrate= 272.4kbits/s speed=   1x    frame= 7276 fps= 30 q=31.0 size=    8182kB time=00:04:05.59 bitrate= 272.9kbits/s speed=0.999x    frame= 7280 fps= 30 q=31.0 size=    8183kB time=00:04:06.29 bitrate= 272.2kbits/s speed=   1x    frame= 7306 fps= 30 q=31.0 size=    8208kB time=00:04:06.60 bitrate= 272.7kbits/s speed=0.999x    frame= 7311 fps= 30 q=31.0 size=    8219kB time=00:04:07.30 bitrate= 272.3kbits/s speed=   1x    frame= 7337 fps= 30 q=31.0 size=    8244kB time=00:04:07.59 bitrate= 272.8kbits/s speed=0.999x    frame= 7342 fps= 30 q=31.0 size=    8245kB time=00:04:08.31 bitrate= 272.0kbits/s speed=   1x    frame= 7365 fps= 30 q=31.0 size=    8270kB time=00:04:08.59 bitrate= 272.5kbits/s speed=0.999x    frame= 7373 fps= 30 q=31.0 size=    8281kB time=00:04:09.31 bitrate= 272.1kbits/s speed=   1x    frame= 7397 fps= 30 q=31.0 size=    8309kB time=00:04:09.60 bitrate= 272.7kbits/s speed=0.999x    frame= 7404 fps= 30 q=31.0 size=    8311kB time=00:04:10.30 bitrate= 272.0kbits/s speed=   1x    frame= 7427 fps= 30 q=31.0 size=    8337kB time=00:04:10.61 bitrate= 272.5kbits/s speed=0.999x    frame= 7435 fps= 30 q=31.0 size=    8349kB time=00:04:11.33 bitrate= 272.1kbits/s speed=   1x    frame= 7458 fps= 30 q=31.0 size=    8376kB time=00:04:11.62 bitrate= 272.7kbits/s speed=0.999x    frame= 7466 fps= 30 q=31.0 size=    8387kB time=00:04:12.34 bitrate= 272.3kbits/s speed=   1x    frame= 7488 fps= 30 q=31.0 size=    8403kB time=00:04:12.60 bitrate= 272.5kbits/s speed=0.999x    frame= 7497 fps= 30 q=31.0 size=    8415kB time=00:04:13.35 bitrate= 272.1kbits/s speed=   1x    frame= 7518 fps= 30 q=31.0 size=    8442kB time=00:04:13.61 bitrate= 272.7kbits/s speed=0.999x    frame= 7528 fps= 30 q=31.0 size=    8456kB time=00:04:14.35 bitrate= 272.3kbits/s speed=   1x    frame= 7549 fps= 30 q=24.8 size=    8480kB time=00:04:14.62 bitrate= 272.8kbits/s speed=0.999x    frame= 7558 fps= 30 q=31.0 size=    8484kB time=00:04:15.36 bitrate= 272.2kbits/s speed=   1x    frame= 7578 fps= 30 q=31.0 size=    8509kB time=00:04:15.63 bitrate= 272.7kbits/s speed=0.999x    frame= 7589 fps= 30 q=31.0 size=    8525kB time=00:04:16.37 bitrate= 272.4kbits/s speed=   1x    frame= 7608 fps= 30 q=31.0 size=    8540kB time=00:04:16.61 bitrate= 272.6kbits/s speed=0.999x    frame= 7620 fps= 30 q=31.0 size=    8551kB time=00:04:17.38 bitrate= 272.2kbits/s speed=   1x    frame= 7638 fps= 30 q=31.0 size=    8575kB time=00:04:17.62 bitrate= 272.7kbits/s speed=0.999x    frame= 7650 fps= 30 q=31.0 size=    8586kB time=00:04:18.39 bitrate= 272.2kbits/s speed=   1x    frame= 7667 fps= 30 q=31.0 size=    8599kB time=00:04:18.63 bitrate= 272.4kbits/s speed=0.999x    frame= 7680 fps= 30 q=31.0 size=    8613kB time=00:04:19.01 bitrate= 272.4kbits/s speed=0.998x    frame= 7697 fps= 30 q=31.0 size=    8639kB time=00:04:19.63 bitrate= 272.6kbits/s speed=0.999x    frame= 7710 fps= 30 q=31.0 size=    8657kB time=00:04:19.99 bitrate= 272.8kbits/s speed=0.998x    frame= 7726 fps= 30 q=31.0 size=    8675kB time=00:04:20.64 bitrate= 272.7kbits/s speed=0.999x    frame= 7740 fps= 30 q=31.0 size=    8693kB time=00:04:20.96 bitrate= 272.9kbits/s speed=0.998x    frame= 7754 fps= 30 q=31.0 size=    8720kB time=00:04:21.63 bitrate= 273.0kbits/s speed=0.999x    frame= 7770 fps= 30 q=31.0 size=    8735kB time=00:04:22.03 bitrate= 273.1kbits/s speed=0.998x    frame= 7785 fps= 30 q=31.0 size=    8749kB time=00:04:22.63 bitrate= 272.9kbits/s speed=0.998x    frame= 7800 fps= 30 q=31.0 size=    8762kB time=00:04:23.03 bitrate= 272.9kbits/s speed=0.998x    frame= 7814 fps= 30 q=31.0 size=    8784kB time=00:04:23.64 bitrate= 272.9kbits/s speed=0.998x    frame= 7829 fps= 30 q=31.0 size=    8796kB time=00:04:24.03 bitrate= 272.9kbits/s speed=0.998x    frame= 7845 fps= 30 q=31.0 size=    8808kB time=00:04:24.65 bitrate= 272.6kbits/s speed=0.998x    frame= 7859 fps= 30 q=31.0 size=    8821kB time=00:04:25.03 bitrate= 272.6kbits/s speed=0.998x    frame= 7874 fps= 30 q=31.0 size=    8843kB time=00:04:25.63 bitrate= 272.7kbits/s speed=0.998x    frame= 7888 fps= 30 q=31.0 size=    8855kB time=00:04:26.03 bitrate= 272.7kbits/s speed=0.998x    frame= 7891 fps= 30 q=31.0 size=    8856kB time=00:04:26.98 bitrate= 271.7kbits/s speed=   1x    frame= 7891 fps= 29 q=31.0 size=    8856kB time=00:04:27.51 bitrate= 271.2kbits/s speed=   1x    frame= 7922 fps= 30 q=31.0 size=    8890kB time=00:04:27.99 bitrate= 271.8kbits/s speed=   1x    frame= 7922 fps= 29 q=31.0 size=    8890kB time=00:04:28.51 bitrate= 271.2kbits/s speed=   1x    frame= 7953 fps= 30 q=31.0 size=    8922kB time=00:04:29.02 bitrate= 271.7kbits/s speed=   1x    frame= 7953 fps= 29 q=31.0 size=    8922kB time=00:04:29.50 bitrate= 271.2kbits/s speed=   1x    frame= 7984 fps= 30 q=31.0 size=    8957kB time=00:04:30.03 bitrate= 271.7kbits/s speed=   1x    frame= 7984 fps= 30 q=31.0 size=    8957kB time=00:04:30.53 bitrate= 271.2kbits/s speed=   1x    frame= 8015 fps= 30 q=31.0 size=    8983kB time=00:04:31.01 bitrate= 271.5kbits/s speed=   1x    frame= 8015 fps= 30 q=31.0 size=    8983kB time=00:04:31.54 bitrate= 271.0kbits/s speed=   1x    frame= 8045 fps= 30 q=31.0 size=    9019kB time=00:04:32.04 bitrate= 271.6kbits/s speed=   1x    frame= 8045 fps= 30 q=31.0 size=    9019kB time=00:04:32.55 bitrate= 271.1kbits/s speed=   1x    frame= 8076 fps= 30 q=31.0 size=    9044kB time=00:04:33.05 bitrate= 271.3kbits/s speed=   1x    frame= 8076 fps= 30 q=31.0 size=    9044kB time=00:04:33.53 bitrate= 270.8kbits/s speed=   1x    frame= 8107 fps= 30 q=31.0 size=    9080kB time=00:04:34.06 bitrate= 271.4kbits/s speed=   1x    frame= 8107 fps= 30 q=31.0 size=    9080kB time=00:04:34.56 bitrate= 270.9kbits/s speed=   1x    frame= 8138 fps= 30 q=31.0 size=    9113kB time=00:04:35.07 bitrate= 271.4kbits/s speed=   1x    frame= 8138 fps= 30 q=31.0 size=    9113kB time=00:04:35.57 bitrate= 270.9kbits/s speed=   1x    frame= 8169 fps= 30 q=31.0 size=    9138kB time=00:04:36.07 bitrate= 271.2kbits/s speed=   1x    frame= 8169 fps= 30 q=31.0 size=    9138kB time=00:04:36.58 bitrate= 270.7kbits/s speed=   1x    frame= 8200 fps= 30 q=31.0 size=    9173kB time=00:04:37.08 bitrate= 271.2kbits/s speed=   1x    frame= 8200 fps= 30 q=31.0 size=    9173kB time=00:04:37.59 bitrate= 270.7kbits/s speed=   1x    frame= 8231 fps= 30 q=31.0 size=    9200kB time=00:04:38.11 bitrate= 271.0kbits/s speed=   1x    frame= 8231 fps= 30 q=31.0 size=    9200kB time=00:04:38.59 bitrate= 270.5kbits/s speed=   1x    frame= 8262 fps= 30 q=31.0 size=    9238kB time=00:04:39.10 bitrate= 271.1kbits/s speed=   1x    frame= 8262 fps= 30 q=31.0 size=    9238kB time=00:04:39.63 bitrate= 270.6kbits/s speed=   1x    frame= 8293 fps= 30 q=24.8 size=    9282kB time=00:04:40.11 bitrate= 271.4kbits/s speed=   1x    frame= 8293 fps= 30 q=24.8 size=    9282kB time=00:04:40.61 bitrate= 271.0kbits/s speed=   1x    frame= 8324 fps= 30 q=31.0 size=    9310kB time=00:04:41.14 bitrate= 271.3kbits/s speed=   1x    frame= 8324 fps= 30 q=31.0 size=    9310kB time=00:04:41.62 bitrate= 270.8kbits/s speed=   1x    frame= 8355 fps= 30 q=31.0 size=    9347kB time=00:04:42.15 bitrate= 271.4kbits/s speed=   1x    frame= 8355 fps= 30 q=31.0 size=    9347kB time=00:04:42.65 bitrate= 270.9kbits/s speed=   1x    frame= 8386 fps= 30 q=31.0 size=    9375kB time=00:04:42.91 bitrate= 271.5kbits/s speed=0.999x    frame= 8386 fps= 30 q=31.0 size=    9375kB time=00:04:43.66 bitrate= 270.8kbits/s speed=   1x    frame= 8416 fps= 30 q=31.0 size=    9417kB time=00:04:43.70 bitrate= 271.9kbits/s speed=0.998x    frame= 8416 fps= 30 q=31.0 size=    9417kB time=00:04:44.64 bitrate= 271.0kbits/s speed=   1x    frame= 8447 fps= 30 q=31.0 size=    9449kB time=00:04:44.76 bitrate= 271.8kbits/s speed=0.998x    frame= 8447 fps= 30 q=31.0 size=    9449kB time=00:04:45.65 bitrate= 271.0kbits/s speed=   1x    frame= 8476 fps= 30 q=31.0 size=    9487kB time=00:04:45.73 bitrate= 272.0kbits/s speed=0.998x    frame= 8477 fps= 30 q=31.0 size=    9487kB time=00:04:46.68 bitrate= 271.1kbits/s speed=   1x    frame= 8506 fps= 30 q=31.0 size=    9515kB time=00:04:46.76 bitrate= 271.8kbits/s speed=0.998x    frame= 8507 fps= 30 q=31.0 size=    9515kB time=00:04:47.69 bitrate= 270.9kbits/s speed=   1x    frame= 8535 fps= 30 q=31.0 size=    9552kB time=00:04:47.76 bitrate= 271.9kbits/s speed=0.998x    frame= 8536 fps= 30 q=31.0 size=    9553kB time=00:04:48.70 bitrate= 271.1kbits/s speed=   1x    frame= 8564 fps= 30 q=31.0 size=    9580kB time=00:04:48.80 bitrate= 271.8kbits/s speed=0.998x    frame= 8566 fps= 30 q=31.0 size=    9581kB time=00:04:49.71 bitrate= 270.9kbits/s speed=   1x    frame= 8593 fps= 30 q=24.8 size=    9619kB time=00:04:49.80 bitrate= 271.9kbits/s speed=0.998x    frame= 8597 fps= 30 q=31.0 size=    9620kB time=00:04:50.71 bitrate= 271.1kbits/s speed=   1x    frame= 8623 fps= 30 q=31.0 size=    9645kB time=00:04:50.80 bitrate= 271.7kbits/s speed=0.998x    frame= 8628 fps= 30 q=31.0 size=    9647kB time=00:04:51.72 bitrate= 270.9kbits/s speed=   1x    frame= 8654 fps= 30 q=31.0 size=    9682kB time=00:04:51.83 bitrate= 271.8kbits/s speed=0.998x    frame= 8660 fps= 30 q=31.0 size=    9684kB time=00:04:52.71 bitrate= 271.0kbits/s speed=   1x    frame= 8684 fps= 30 q=31.0 size=    9710kB time=00:04:52.83 bitrate= 271.6kbits/s speed=0.998x    frame= 8692 fps= 30 q=31.0 size=    9721kB time=00:04:53.71 bitrate= 271.1kbits/s speed=   1x    frame= 8715 fps= 30 q=31.0 size=    9747kB time=00:04:53.86 bitrate= 271.7kbits/s speed=0.998x    frame= 8726 fps= 30 q=31.0 size=    9760kB time=00:04:54.72 bitrate= 271.3kbits/s speed=   1x    frame= 8745 fps= 30 q=31.0 size=    9776kB time=00:04:54.86 bitrate= 271.6kbits/s speed=0.998x    frame= 8755 fps= 30 q=31.0 size=    9788kB time=00:04:55.73 bitrate= 271.1kbits/s speed=   1x    frame= 8775 fps= 30 q=31.0 size=    9813kB time=00:04:55.86 bitrate= 271.7kbits/s speed=0.998x    frame= 8790 fps= 30 q=31.0 size=    9827kB time=00:04:56.74 bitrate= 271.3kbits/s speed=   1x    frame= 8806 fps= 30 q=31.0 size=    9841kB time=00:04:56.90 bitrate= 271.5kbits/s speed=0.998x    frame= 8821 fps= 30 q=24.8 size=    9865kB time=00:04:57.72 bitrate= 271.4kbits/s speed=0.999x    frame= 8836 fps= 30 q=31.0 size=    9878kB time=00:04:57.90 bitrate= 271.6kbits/s speed=0.998x    frame= 8850 fps= 30 q=31.0 size=    9891kB time=00:04:58.73 bitrate= 271.2kbits/s speed=0.999x    